<?xml version="1.0" encoding="utf-8"?>
<!-- Generator: Adobe Illustrator 16.0.4, SVG Export Plug-In . SVG Version: 6.00 Build 0)  -->
<!DOCTYPE svg PUBLIC "-//W3C//DTD SVG 1.1//EN" "http://www.w3.org/Graphics/SVG/1.1/DTD/svg11.dtd">
<svg version="1.1"
	 id="svg2985" xmlns:dc="http://purl.org/dc/elements/1.1/" xmlns:cc="http://creativecommons.org/ns#" xmlns:rdf="http://www.w3.org/1999/02/22-rdf-syntax-ns#" xmlns:svg="http://www.w3.org/2000/svg" xmlns:sodipodi="http://sodipodi.sourceforge.net/DTD/sodipodi-0.dtd" xmlns:inkscape="http://www.inkscape.org/namespaces/inkscape" sodipodi:docname="Nouveau document 2" inkscape:version="0.48.4 r9939"
	 xmlns="http://www.w3.org/2000/svg" xmlns:xlink="http://www.w3.org/1999/xlink" x="0px" y="0px" width="32px" height="32px"
	 viewBox="0 0 32 32" enable-background="new 0 0 32 32" xml:space="preserve">
<sodipodi:namedview  showgrid="true" inkscape:cy="14.214423" inkscape:cx="7.8040612" inkscape:zoom="22.395604" borderopacity="1.0" bordercolor="#666666" pagecolor="#ffffff" id="base" inkscape:window-maximized="1" inkscape:window-y="36" inkscape:window-x="-2" inkscape:current-layer="layer1" inkscape:pageopacity="0.0" inkscape:window-height="1021" inkscape:window-width="1920" inkscape:document-units="px" inkscape:grid-bbox="true" inkscape:pageshadow="2">
	</sodipodi:namedview>
<g id="onf1N2_1_">
	<g>
		<g>
			<path fill="#F2A630" d="M-0.468,22.939c0-8.391,0.028-16.782-0.033-25.173c-0.008-1.163,0.298-1.56,1.404-1.35
				C1.025-3.365,1.192-2.944,1.259-2.96c0.428-0.1,0.127-0.397,0.103-0.624c3.658,0,7.316,0,10.975,0
				C12.177-3.29,12.018-2.995,11.859-2.7c-0.458,0.188-0.915,0.376-1.373,0.564C10.217-2.106,9.86-2.2,9.912-1.724
				c0.207-0.024,0.413-0.048,0.619-0.072c0.301,0.135,0.602,0.27,0.902,0.404l0.204,0.078l0.217-0.026
				c0.929,0.767,2.696-0.366,3.183,1.403l0.024-0.028c-0.381-0.074-0.517,0.2-0.656,0.466c-0.09,0.145-0.179,0.29-0.269,0.435
				c-0.108,0.118-0.216,0.236-0.324,0.354c0.102,0.064,0.203,0.128,0.305,0.192l0.018,0.017c0.254,0.299,0.347,0.987,0.969,0.403
				c0.279,0.002,0.559,0.004,0.838,0.007c0.039,0.305,0.078,0.61,0.117,0.915c0.009,0.161,0.017,0.322,0.024,0.482
				c-0.1,0.452-0.999,0.784-0.207,1.371c-0.975,1.695-2.021,3.583-1.444,5.445c0.659,2.126-0.174,2.954-1.817,3.714
				c-0.883,0.409-1.718,0.934-2.541,1.459c-2.307,1.471-2.373,1.952-0.96,4.266c0.417,0.686,0.576,1.527,0.854,2.297
				c-0.917-0.127-1.763,0.244-1.874,1.09c-0.139,1.064-0.893,1.262-1.561,1.674c-0.176-0.736-0.573-1.207-1.394-1.225
				C3.261,23.357,1.434,22.686-0.468,22.939z M7.169-1.053c0.209,0.062,0.404,0.163,0.602,0.168
				c0.201,0.006,0.475-0.089,0.205-0.344c-0.134-0.127-0.4-0.135-0.609-0.148C7.315-1.381,7.252-1.195,7.169-1.053z"/>
			<path fill-rule="evenodd" clip-rule="evenodd" fill="#0047F7" d="M14.136,0.935c0.09-0.145,0.179-0.29,0.27-0.435
				c0.339,0.014,0.592-0.094,0.656-0.466l-0.024,0.028c0.41-0.402,1.491-0.977,0.188-1.279c-1.035-0.241-2.23-0.99-3.371-0.124
				l-0.217,0.026c0,0-0.204-0.078-0.205-0.078c0.142-0.436,0.284-0.873,0.426-1.309c0.159-0.294,0.318-0.589,0.478-0.883
				c4.42,0,8.841,0,13.261,0c0.252,1.01-0.637,1.882-0.509,3.131c1.33-0.873,1.438-1.976,1.424-3.131
				c1.981,0,4.736-0.774,5.728,0.217c0.99,0.991,0.217,3.746,0.217,5.728s0,3.963,0,5.945c-0.665,0-1.33,0-1.995,0
				c0.008,0.152,0.015,0.305,0.021,0.457c0.658,0,1.315,0,1.974,0c0,2.896,0,5.792,0,8.688c-0.199,0.152-0.398,0.307-0.597,0.459
				c0.198,0.15,0.397,0.305,0.597,0.457c0,3.354,0,6.707,0,10.061c-0.489,0.064-0.8,0.334-0.919,0.816
				c-2.381,0.014-4.396-1.074-6.415-2.141c-0.053-0.508-0.31-0.842-0.816-0.965c-0.059-0.156-0.116-0.316-0.175-0.475
				c0.057-0.312,0.112-0.627,0.169-0.941c0.423-0.58,0.026-0.742-0.443-0.867c-0.012-0.148-0.022-0.297-0.034-0.445
				c0.93-1.139,1.876-2.264,2.78-3.422c0.48-0.615,0.889-1.221,1.803-0.645c0.345,0.217,0.82,0.576,1.166,0.027
				c0.276-0.441,0.011-0.859-0.301-1.211c-0.315-0.355-0.511-0.74-0.313-1.227c0.136-0.17,0.42-0.402,0.379-0.5
				c-0.124-0.309-0.336-0.109-0.503,0.029c-2.254-0.714-4.84-1.916-5.655-3.682c-0.82-1.775-1.763-3.787-2.163-5.853
				c-0.142-0.295-0.283-0.59-0.426-0.885c-0.799-1.578-2.337-1.363-3.718-1.531c-0.263-0.402-0.526-0.804-0.79-1.206
				c-0.008-0.161-0.016-0.322-0.024-0.483c0.658-0.244,1.102-0.711,0.604-1.333c-0.358-0.447-0.567,0.107-0.722,0.419
				c-0.279-0.002-0.559-0.005-0.838-0.007c-0.323-0.135-0.646-0.269-0.969-0.403c0,0-0.018-0.017-0.017-0.017
				C14.123,1.3,14.129,1.117,14.136,0.935z M28.779,2.853l0.14,0.086l-0.087-0.14c-0.145-0.064-0.226-0.406-0.455-0.105
				C28.511,2.747,28.646,2.8,28.779,2.853z M23.298-0.359c0.141,0.061,0.214,0.41,0.44,0.104c-0.133-0.051-0.267-0.102-0.399-0.154
				c-0.11-0.445-0.212-0.916-0.729-1.057c-0.272-0.074-0.463,0.121-0.382,0.393C22.38-0.562,22.85-0.462,23.298-0.359z
				 M27.187,5.363c-0.229-0.051-0.43-0.131-0.625-0.121c-0.08,0.003-0.15,0.202-0.226,0.312c0.196,0.061,0.391,0.15,0.59,0.165
				C26.991,5.722,27.069,5.529,27.187,5.363z M29.448,5.124c-0.084-0.072-0.169-0.144-0.253-0.216
				c-0.037,0.051-0.115,0.138-0.105,0.148c0.072,0.083,0.161,0.15,0.245,0.222C29.373,5.227,29.41,5.175,29.448,5.124z
				 M27.232-2.634c-0.051,0.033-0.125,0.056-0.146,0.103c-0.024,0.058-0.004,0.136-0.004,0.205c0.085-0.045,0.169-0.09,0.253-0.135
				C27.302-2.52,27.268-2.577,27.232-2.634z M27.672,9.167c-0.033-0.059-0.065-0.118-0.098-0.176
				c-0.067,0.074-0.134,0.149-0.2,0.224c0.06,0.031,0.121,0.088,0.179,0.084C27.595,9.296,27.632,9.214,27.672,9.167z M20.272,0.562
				l0.126,0.013l-0.051-0.129L20.272,0.562z"/>
			<path fill-rule="evenodd" clip-rule="evenodd" fill="#E8442E" d="M23.823,23.41c0.012,0.148,0.022,0.297,0.034,0.445
				c-0.053,0.141-0.065,0.283-0.036,0.432c-0.044,0.492-0.025,0.971,0.311,1.377c0.059,0.158,0.116,0.318,0.175,0.475
				c0.028,0.529,0.43,0.74,0.816,0.965c2.02,1.066,4.034,2.154,6.415,2.141l0.001,0.168c0.015,0.324,0.029,0.645,0.045,0.967
				c0.004,0.582,0.008,1.162,0.011,1.744c-0.018,0.443-0.035,0.889-0.052,1.334c-8.384,0-16.768,0-25.151,0
				c1.798-1.203,2.326-2.553,0.595-4.279c-1.37-1.367-1.185-2.949-0.456-4.557c0.667-0.412,1.422-0.609,1.561-1.674
				c0.11-0.846,0.957-1.217,1.874-1.088c1.051,1.135,3.381,0.666,3.638,2.643c0.144,1.109,0.897,1.461,1.493,2.074
				c0.151,0.154,0.302,0.307,0.453,0.459c0.305,0.166,0.61,0.332,0.915,0.498c0.654,0.559,1.101,0.4,1.359-0.396
				c0.161-0.186,0.323-0.371,0.484-0.557c0.389-0.369,0.432-0.844,0.408-1.34c0.048-0.348,0.095-0.697,0.142-1.047
				c0.444-0.658,0.396-1.607,1.207-2.049C21.827,21.055,22.897,22.02,23.823,23.41z M13.879,30.004
				c0.026-0.062,0.082-0.129,0.07-0.182c-0.009-0.043-0.1-0.066-0.155-0.1c-0.035,0.102-0.069,0.201-0.104,0.303
				C13.753,30.018,13.816,30.01,13.879,30.004z"/>
			<path fill-rule="evenodd" clip-rule="evenodd" fill="#368587" d="M6.531,24.621c-0.729,1.607-0.915,3.189,0.456,4.557
				c1.73,1.727,1.203,3.076-0.595,4.279c-1.905,0-3.815-0.07-5.715,0.029c-0.99,0.053-1.201-0.188-1.175-1.174
				c0.082-3.121,0.03-6.248,0.03-9.373c1.902-0.254,3.729,0.418,5.605,0.457C5.958,23.414,6.355,23.885,6.531,24.621z"/>
			<path fill-rule="evenodd" clip-rule="evenodd" fill="#0045F2" d="M26.513-3.583c0.015,1.155-0.094,2.258-1.424,3.131
				c-0.128-1.249,0.761-2.121,0.509-3.131C25.902-3.583,26.208-3.583,26.513-3.583z"/>
			<path fill-rule="evenodd" clip-rule="evenodd" fill="#872517" d="M31.596,32.123c-0.004-0.582-0.008-1.162-0.013-1.744
				c0.292,0.111,0.583,0.223,0.874,0.334c0,0.457,0,0.916,0,1.373c-0.14,0.01-0.279,0.01-0.419,0
				C31.89,32.084,31.742,32.096,31.596,32.123z"/>
			<path fill-rule="evenodd" clip-rule="evenodd" fill="#0046F6" d="M32.457,8.763c-0.658,0-1.315,0-1.974,0
				c-0.007-0.152-0.014-0.305-0.021-0.457c0.665,0,1.33,0,1.995,0C32.457,8.458,32.457,8.611,32.457,8.763z"/>
			<path fill-rule="evenodd" clip-rule="evenodd" fill="#0046F6" d="M31.538,29.244c0.119-0.482,0.43-0.752,0.919-0.816
				c0,0.457,0,0.914,0,1.371c-0.306-0.129-0.612-0.258-0.918-0.387L31.538,29.244z"/>
			<path fill-rule="evenodd" clip-rule="evenodd" fill="#0046F6" d="M32.457,18.367c-0.199-0.152-0.398-0.307-0.597-0.457
				c0.198-0.152,0.397-0.307,0.597-0.459C32.457,17.758,32.457,18.061,32.457,18.367z"/>
			<path fill-rule="evenodd" clip-rule="evenodd" fill="#E8442E" d="M31.539,29.412c0.306,0.129,0.612,0.258,0.918,0.387
				c0,0.305,0,0.609,0,0.914c-0.291-0.111-0.582-0.223-0.874-0.334C31.568,30.057,31.554,29.736,31.539,29.412z"/>
			<path fill-rule="evenodd" clip-rule="evenodd" fill="#E1422C" d="M32.038,32.086c0.14,0.01,0.279,0.01,0.419,0
				C32.234,32.52,32.98,33.275,32,33.457C32.013,33,32.025,32.543,32.038,32.086z"/>
			<path fill-rule="evenodd" clip-rule="evenodd" fill="#320905" d="M32.038,32.086C32.025,32.543,32.013,33,32,33.457
				c-0.152,0-0.305,0-0.457,0c0.017-0.445,0.034-0.891,0.052-1.334C31.742,32.096,31.89,32.084,32.038,32.086z"/>
			<path fill-rule="evenodd" clip-rule="evenodd" fill="#EEA32F" d="M1.361-3.583C1.386-3.357,1.687-3.06,1.259-2.96
				C1.192-2.944,1.025-3.365,0.904-3.583C1.057-3.583,1.208-3.583,1.361-3.583z"/>
			<path fill-rule="evenodd" clip-rule="evenodd" fill="#368587" d="M18.857,24.193c-0.047,0.35-0.094,0.699-0.142,1.047
				c-0.44,0.354-0.652,0.777-0.408,1.34c-0.161,0.186-0.323,0.371-0.484,0.557c-0.499-0.025-1.046-0.213-1.359,0.396
				c-0.305-0.166-0.61-0.332-0.915-0.496c-0.15-0.154-0.302-0.307-0.453-0.461c-0.596-0.613-1.349-0.965-1.493-2.074
				c-0.256-1.977-2.587-1.508-3.638-2.643c-0.278-0.771-0.437-1.613-0.854-2.299c-1.413-2.314-1.346-2.795,0.96-4.266
				c0.823-0.525,1.658-1.05,2.541-1.459c1.643-0.76,2.477-1.587,1.817-3.714c-0.577-1.862,0.469-3.75,1.445-5.445
				c0.332-0.055,0.664-0.109,0.996-0.164c1.381,0.167,2.919-0.047,3.718,1.53c0.142,0.295,0.283,0.59,0.426,0.886
				c0.4,2.065,1.343,4.078,2.163,5.853c0.815,1.766,3.401,2.967,5.654,3.682c0.041,0.158,0.083,0.314,0.125,0.471
				c-0.197,0.486-0.002,0.871,0.313,1.227c0.312,0.352,0.577,0.77,0.301,1.211c-0.346,0.549-0.821,0.189-1.166-0.027
				c-0.914-0.576-1.322,0.029-1.803,0.645c-0.904,1.158-1.851,2.283-2.78,3.422c-0.926-1.391-1.996-2.355-3.758-1.266
				C18.144,21.932,17.803,22.652,18.857,24.193z"/>
			<path fill-rule="evenodd" clip-rule="evenodd" fill="#2C293A" d="M11.854-1.34c1.141-0.866,2.336-0.117,3.371,0.124
				c1.303,0.303,0.222,0.877-0.188,1.279C14.55-1.707,12.784-0.573,11.854-1.34z"/>
			<path fill-rule="evenodd" clip-rule="evenodd" fill="#0045F2" d="M15.94,1.909c0.154-0.312,0.363-0.866,0.722-0.419
				c0.497,0.622,0.054,1.089-0.604,1.333C16.019,2.519,15.979,2.213,15.94,1.909z"/>
			<path fill-rule="evenodd" clip-rule="evenodd" fill="#0046F4" d="M16.872,4.513c-0.332,0.055-0.664,0.109-0.996,0.164
				c-0.792-0.587,0.106-0.919,0.206-1.371C16.346,3.708,16.609,4.111,16.872,4.513z"/>
			<path fill-rule="evenodd" clip-rule="evenodd" fill="#EEA32F" d="M7.169-1.053c0.083-0.142,0.146-0.328,0.198-0.324
				c0.209,0.014,0.475,0.021,0.609,0.148c0.27,0.255-0.004,0.35-0.205,0.344C7.573-0.891,7.378-0.991,7.169-1.053z"/>
			<path fill-rule="evenodd" clip-rule="evenodd" fill="#0045F2" d="M11.859-2.7c-0.142,0.436-0.284,0.873-0.426,1.309
				c-0.3-0.134-0.601-0.269-0.901-0.403c-0.024-0.112-0.04-0.226-0.046-0.341C10.944-2.324,11.401-2.512,11.859-2.7z"/>
			<path fill-rule="evenodd" clip-rule="evenodd" fill="#EEA32F" d="M10.486-2.136c0.006,0.115,0.021,0.229,0.046,0.341
				c-0.207,0.023-0.413,0.047-0.62,0.071C9.86-2.2,10.217-2.106,10.486-2.136z"/>
			<path fill-rule="evenodd" clip-rule="evenodd" fill="#0045F2" d="M14.134,1.499c0.323,0.134,0.646,0.269,0.969,0.403
				C14.481,2.485,14.388,1.798,14.134,1.499z"/>
			<path fill-rule="evenodd" clip-rule="evenodd" fill="#2C293A" d="M15.061,0.035c-0.064,0.372-0.317,0.479-0.656,0.466
				C14.544,0.234,14.68-0.039,15.061,0.035z"/>
			<path fill-rule="evenodd" clip-rule="evenodd" fill="#0045F2" d="M14.136,0.935c-0.006,0.182-0.013,0.365-0.019,0.546
				c-0.102-0.064-0.204-0.128-0.305-0.192C13.92,1.171,14.027,1.053,14.136,0.935z"/>
			<path fill-rule="evenodd" clip-rule="evenodd" fill="#0045F2" d="M23.298-0.359c-0.448-0.104-0.918-0.204-1.069-0.714
				c-0.081-0.271,0.109-0.467,0.382-0.393c0.517,0.141,0.618,0.612,0.729,1.057L23.298-0.359z"/>
			<path fill-rule="evenodd" clip-rule="evenodd" fill="#0046F4" d="M27.187,5.363c-0.117,0.166-0.195,0.359-0.261,0.355
				c-0.199-0.015-0.394-0.104-0.59-0.165c0.075-0.11,0.146-0.308,0.226-0.312C26.757,5.232,26.958,5.312,27.187,5.363z"/>
			<path fill-rule="evenodd" clip-rule="evenodd" fill="#0046F4" d="M29.448,5.124c-0.038,0.051-0.075,0.103-0.113,0.154
				c-0.084-0.072-0.173-0.14-0.245-0.222c-0.01-0.01,0.068-0.097,0.105-0.148C29.279,4.979,29.364,5.051,29.448,5.124z"/>
			<path fill-rule="evenodd" clip-rule="evenodd" fill="#0046F4" d="M27.232-2.634c0.035,0.057,0.069,0.115,0.104,0.172
				c-0.084,0.045-0.168,0.09-0.253,0.135c0-0.069-0.021-0.147,0.004-0.205C27.107-2.578,27.182-2.601,27.232-2.634z"/>
			<path fill-rule="evenodd" clip-rule="evenodd" fill="#0046F6" d="M25.123,27.104c-0.387-0.225-0.788-0.436-0.816-0.965
				C24.813,26.262,25.07,26.596,25.123,27.104z"/>
			<path fill-rule="evenodd" clip-rule="evenodd" fill="#E8442E" d="M24.132,25.664c-0.336-0.406-0.354-0.885-0.312-1.377
				c0.16,0.145,0.32,0.291,0.48,0.436C24.244,25.037,24.188,25.352,24.132,25.664z"/>
			<path fill-rule="evenodd" clip-rule="evenodd" fill="#0046F6" d="M24.301,24.723c-0.16-0.145-0.32-0.291-0.48-0.436
				c-0.028-0.148-0.016-0.291,0.037-0.432C24.327,23.98,24.724,24.143,24.301,24.723z"/>
			<path fill-rule="evenodd" clip-rule="evenodd" fill="#0046F6" d="M28.958,16.934c-0.042-0.156-0.084-0.312-0.125-0.471
				c0.168-0.139,0.38-0.338,0.504-0.029C29.378,16.531,29.094,16.764,28.958,16.934z"/>
			<path fill-rule="evenodd" clip-rule="evenodd" fill="#0046F6" d="M27.672,9.167c-0.04,0.047-0.077,0.129-0.119,0.132
				c-0.058,0.004-0.119-0.053-0.179-0.084c0.066-0.075,0.133-0.15,0.2-0.224C27.606,9.05,27.639,9.109,27.672,9.167z"/>
			<path fill-rule="evenodd" clip-rule="evenodd" fill="#0045F2" d="M23.339-0.409c0.133,0.052,0.267,0.103,0.399,0.154
				c-0.227,0.306-0.3-0.043-0.44-0.104L23.339-0.409z"/>
			<polygon fill-rule="evenodd" clip-rule="evenodd" fill="#0045F2" points="20.272,0.562 20.348,0.445 20.398,0.574 			"/>
			<path fill-rule="evenodd" clip-rule="evenodd" fill="#0046F6" d="M21.016,6.929c-0.143-0.295-0.284-0.59-0.426-0.886
				C20.732,6.339,20.874,6.634,21.016,6.929z"/>
			<path fill-rule="evenodd" clip-rule="evenodd" fill="#0046F4" d="M28.779,2.853c-0.134-0.053-0.269-0.106-0.402-0.16
				c0.229-0.301,0.311,0.041,0.455,0.105L28.779,2.853z"/>
			<polygon fill-rule="evenodd" clip-rule="evenodd" fill="#0046F4" points="28.832,2.799 28.919,2.939 28.779,2.853 			"/>
			<path fill-rule="evenodd" clip-rule="evenodd" fill="#E8442E" d="M18.857,24.193c-1.055-1.541-0.714-2.262,1.208-2.049
				C19.254,22.586,19.302,23.535,18.857,24.193z"/>
			<path fill-rule="evenodd" clip-rule="evenodd" fill="#E8442E" d="M16.464,27.533c0.313-0.609,0.86-0.422,1.359-0.396
				C17.564,27.934,17.118,28.092,16.464,27.533z"/>
			<path fill-rule="evenodd" clip-rule="evenodd" fill="#E8442E" d="M18.308,26.58c-0.244-0.562-0.032-0.986,0.408-1.34
				C18.739,25.736,18.696,26.211,18.308,26.58z"/>
			<path fill-rule="evenodd" clip-rule="evenodd" fill="#E8442E" d="M13.879,30.004c-0.063,0.006-0.126,0.014-0.189,0.021
				c0.035-0.102,0.069-0.201,0.104-0.303c0.055,0.033,0.146,0.057,0.155,0.1C13.96,29.875,13.905,29.941,13.879,30.004z"/>
			<path fill-rule="evenodd" clip-rule="evenodd" fill="#E8442E" d="M15.096,26.576c0.151,0.154,0.302,0.307,0.453,0.461
				C15.398,26.883,15.247,26.73,15.096,26.576z"/>
		</g>
	</g>
</g>
</svg>
