<?xml version="1.0" encoding="utf-8"?>
<!-- Generator: Adobe Illustrator 16.0.4, SVG Export Plug-In . SVG Version: 6.00 Build 0)  -->
<!DOCTYPE svg PUBLIC "-//W3C//DTD SVG 1.1//EN" "http://www.w3.org/Graphics/SVG/1.1/DTD/svg11.dtd">
<svg version="1.1"
	 id="svg2985" xmlns:dc="http://purl.org/dc/elements/1.1/" xmlns:cc="http://creativecommons.org/ns#" xmlns:rdf="http://www.w3.org/1999/02/22-rdf-syntax-ns#" xmlns:svg="http://www.w3.org/2000/svg" xmlns:sodipodi="http://sodipodi.sourceforge.net/DTD/sodipodi-0.dtd" xmlns:inkscape="http://www.inkscape.org/namespaces/inkscape" sodipodi:docname="Nouveau document 2" inkscape:version="0.48.4 r9939"
	 xmlns="http://www.w3.org/2000/svg" xmlns:xlink="http://www.w3.org/1999/xlink" x="0px" y="0px" width="32px" height="32px"
	 viewBox="0 0 32 32" enable-background="new 0 0 32 32" xml:space="preserve">
<sodipodi:namedview  showgrid="true" inkscape:cy="14.214423" inkscape:cx="7.8040612" inkscape:zoom="22.395604" borderopacity="1.0" bordercolor="#666666" pagecolor="#ffffff" id="base" inkscape:window-maximized="1" inkscape:window-y="36" inkscape:window-x="-2" inkscape:current-layer="layer1" inkscape:pageopacity="0.0" inkscape:window-height="1021" inkscape:window-width="1920" inkscape:document-units="px" inkscape:grid-bbox="true" inkscape:pageshadow="2">
	</sodipodi:namedview>
<g id="WqjOeb_1_">
	<g>
		<g>
			<path fill="#569A30" d="M15.24,32.823c-1.64,0-3.28,0-4.919,0c-1.491-0.681-2.503-1.825-3.311-3.232
				c-1.259-2.19-2.937-4.114-4.103-6.37c-1.667-3.226-1.633-3.457,1.042-5.789c0.449-0.526,1.136-0.736,1.607-1.231
				c0.564-0.642,0.475-1.462,0.605-2.226c1.434-2.812,4.285-3.16,6.766-0.832c1.128,0.893,1.427,2.297,2.118,3.459
				c0.244,0.291,0.532,0.533,0.872,0.712c0.813,0.424,1.694,0.667,2.556,0.97c0.729,0.4,1.807-0.112,2.315,0.874
				c0.444,0.914,1.496,1.569,1.223,2.796c-0.12,0.729-0.243,1.457-0.325,2.189c-0.299,1.232,0.062,2.47,0,3.707
				c-0.022,1.333-1.127,1.898-1.909,2.691C17.941,30.658,16.595,31.749,15.24,32.823z"/>
			<path fill-rule="evenodd" clip-rule="evenodd" fill="#BB4034" d="M6.725,18.03c-0.729,0.711-1.462,0.082-2.194,0.01
				c-2.134,0.485-2.725-1.392-3.824-2.491c-0.415-0.354-0.914-0.588-1.334-0.935c-0.555-0.604-0.427-1.516-0.97-2.124
				c-0.605-0.905-1.686-1.446-1.986-2.586C-3.801,8.581-3.939,7.275-2.779,6.26c1.534-1.099,3.575-1.497,4.601-3.302
				c0.292-0.596,0.244-1.245,0.292-1.88c0.054-0.649,0.35-1.103,1.012-1.262c0.299-0.2,0.639-0.328,0.934-0.535
				c2.087,0,4.174,0,6.261,0c0.986,1.074,1.917,2.183,2.575,3.507c0.845,1.7,2.51,2.402,4.073,3.22
				c0.523,0.738,0.465,1.853,1.486,2.265c0.978,0.792,0.488,1.829,0.473,2.786c-0.389,0.512-1.027,0.472-1.545,0.699
				c-0.295,0.123-0.585,0.261-0.86,0.427c-0.682,0.427-1.204,1.016-1.688,1.646c-0.463,0.602-0.979,1.083-1.819,0.663
				c-0.175-0.132-0.354-0.26-0.537-0.382c-2.225-1.974-4.294-1.798-5.243,0.446C7.963,15.847,7.511,16.963,6.725,18.03z"/>
			<path fill-rule="evenodd" clip-rule="evenodd" fill="#569A30" d="M1.812,14.354c1.505,0.787,1.213,2.899,2.719,3.687
				c-1.678,1.489-1.634,3.049-0.433,4.873c2.145,3.257,4.156,6.602,6.223,9.91c-4.919,0-9.839,0-14.759,0
				c-0.19-0.83,0.083-1.664,0.008-2.495c0.17-0.869,0.458-1.765-0.455-2.424c0-1.193,0-2.386,0-3.578
				c1.537-1.641,0.905-3.279,0-4.92c0-1.192,0-2.385,0-3.578c1.185-1.04,1.139-2.879,2.479-3.823
				c0.917,0.055,1.277,1.112,2.171,1.208C0.285,13.882,1.307,13.654,1.812,14.354z"/>
			<path fill-rule="evenodd" clip-rule="evenodd" fill="#BB3F34" d="M15.657,6.799c-3.077-1.584-5.034-3.965-5.336-7.519
				c1.938,0,3.876,0,5.814,0c0.273,0.251,0.487,0.586,0.898,0.645c0.471,0.025,0.941,0.071,1.401-0.084
				c0.435-0.167,0.922-0.213,1.278-0.561c0.298,0,0.596,0,0.895,0c0.358,0.351,0.9,0.396,1.26,0.745
				c0.376,0.047,0.728,0.241,1.099,0.061c0.879,0.036,1.78-0.237,2.678-0.093c1.871,0.401,1.8,1.934,1.917,3.356
				c0.411,1.432-0.625,2.57-0.792,3.887c-0.307,0.561-0.598,1.132-0.953,1.662c-0.386,0.381-0.919,0.276-1.376,0.415
				c-1.431-0.298-2.104,1.372-3.438,1.333c-0.238,0.031-0.477,0.058-0.714,0.087c-0.239,0.053-0.47,0.026-0.69-0.081
				c-0.734-0.561-1.52-1.061-2.126-1.773C17.69,7.469,16.426,7.351,15.657,6.799z"/>
			<path fill-rule="evenodd" clip-rule="evenodd" fill="#7A602F" d="M25.083,7.998c0.213-0.403,0.426-0.807,0.639-1.21
				c0.318-0.641,0.629-1.287,1.107-1.832c0.222-0.103,0.446-0.195,0.676-0.274c0.88-0.002,1.655,0.369,2.446,0.678
				c0.418,0.203,0.693,0.59,1.079,0.831c1.059,0.419,0.407,1.337,0.596,2.005c0.038,0.06,0.062,0.131,0.099,0.189
				c0.144,0.167,0.312,0.297,0.525,0.377c0.834,0.199,1.696,0.292,2.412,0.824c1.178,0.714,1.276,2.133,2.046,3.112
				c0,3.131,0,6.261,0,9.392c-0.601,0.814-1.268,0.854-2.072,0.258c-1.896-1.4-3.983-2.518-5.856-3.951
				c-0.178-0.417-0.302-0.854-0.463-1.273c-1.714-2.059-3.133-4.326-4.566-6.583C23.745,9.457,24.482,8.763,25.083,7.998z"/>
			<path fill-rule="evenodd" clip-rule="evenodd" fill="#559A30" d="M-2.177,13.114c-0.37,1.437-1.039,2.574-2.708,2.714
				c0-5.516,0-11.032,0-16.548c2.981,0,5.963,0,8.945,0C3.974-0.577,3.889-0.435,3.804-0.292c-0.881,0.85-0.291,1.686,0.024,2.525
				C3.736,2.975,4.308,4.007,2.964,4.198C1.606,5.085,0.249,5.973-1.108,6.86c-1.767,0.677-1.443,2.021-1.079,3.378
				c0.444,0.618,0.889,1.236,1.333,1.854C0.024,14.141-1.718,12.797-2.177,13.114z"/>
			<path fill-rule="evenodd" clip-rule="evenodd" fill="#559930" d="M29.584,17.806c2.686,0.911,4.467,3.326,7.124,4.284
				c0,1.342,0,2.684,0,4.025c-0.216,0.236-0.267,0.565-0.458,0.813c-0.822,0.421-1.449-0.14-2.131-0.429
				c-1.535-0.65-3-1.55-4.773-1.348c-0.31,0.085-0.61,0.188-0.906,0.319c-0.427,0.218-0.858,0.42-1.289,0.633
				c-1.688,0.329-2.672-0.676-3.554-1.875c-0.433-0.648-0.384-1.341-0.19-2.045c0.326-1.156-0.721-2.231-0.201-3.405
				c0.135-0.631,0.527-1.089,0.985-1.505c1.005-0.878,2.258-0.854,3.457-0.925C28.403,16.696,29.078,17.134,29.584,17.806z"/>
			<path fill-rule="evenodd" clip-rule="evenodd" fill="#BA3F33" d="M29.227,23.436c2.466,0.695,4.874,1.518,6.911,3.152
				c0.715,0.523,0.129,1.213,0.232,1.809c-0.289,1.399-1.247,1.463-2.369,1.192c-0.227,0.02-0.454,0.064-0.655,0.188
				c-0.093,0.122-0.192,0.23-0.278,0.355c-0.166,0.324-0.207,0.679-0.3,1.023c-0.187,1.053-1.417,0.92-1.874,1.667
				c-2.386,0-4.771,0-7.155,0c-0.401-0.457-1.012-0.799-0.877-1.569c0.385-0.747,0.551-1.571,0.794-2.367
				c1.735-0.663,2.651-2.141,3.562-3.624c0.057-0.458,0.113-0.917,0.171-1.375C27.939,23.49,28.448,22.916,29.227,23.436z"/>
			<path fill-rule="evenodd" clip-rule="evenodd" fill="#994A30" d="M29.104,8.586c0.607-0.391,1.1-0.877,1.315-1.592
				c-0.047-0.428-0.233-0.811-0.399-1.2c0.272-1.59,0.174-3.097-0.916-4.411c-0.309-0.372-0.411-0.792,0.015-1.182
				c0.654-0.517,1.577-0.382,2.222-0.921c0.447,0,0.895,0,1.342,0c1.333,0.628,1.949,1.865,2.573,3.079
				c0.368,0.715,0.596,1.52,1.452,1.841c0,2.833,0,5.665,0,8.498c-0.9-0.742-1.801-1.483-2.701-2.225
				c-0.794,0.132-1.535-0.01-2.224-0.428c-0.446-0.002-0.893-0.004-1.339-0.006C29.146,10.339,28.707,9.849,29.104,8.586z"/>
			<path fill-rule="evenodd" clip-rule="evenodd" fill="#974A2F" d="M30.222,0.605c0.59,1.764,2.776,3.35,0.602,5.42
				c-0.314,0.812-1.004,0.624-1.628,0.611c-0.535-0.513-1.494-0.26-1.881-1.042c-0.104-0.011-0.207-0.017-0.312-0.019
				c-0.816-0.396-0.943-1.013-0.575-1.789c-0.035-1.206-0.272-2.329-1.269-3.147c-0.904,0.061-1.691,0.562-2.58,0.682
				c-0.824,0.333-1.316,0.026-1.54-0.798c-0.144-0.414-0.288-0.829-0.432-1.243c2.832,0,5.665,0,8.497,0
				C29.83-0.576,29.812,0.195,30.222,0.605z"/>
			<path fill-rule="evenodd" clip-rule="evenodd" fill="#B93F33" d="M23.726,31.285c0.004,0.513,0.008,1.025,0.013,1.538
				c-2.833,0-5.665,0-8.498,0c0.605-1.916,1.086-3.97,3.854-3.514c0.846,0.292,1.627,0.195,2.339-0.373
				c0.234-0.105,0.474-0.181,0.727-0.223C24.186,28.959,24.302,29.149,23.726,31.285z"/>
			<path fill-rule="evenodd" clip-rule="evenodd" fill="#617B2D" d="M34.056,28.136c0.748,0.291,1.505,0.77,2.202-0.097
				c0.068-0.316,0.219-0.361,0.45-0.135c0,1.64,0.64,3.92-0.181,4.739c-0.819,0.819-3.1,0.18-4.739,0.18c-0.149,0-0.298,0-0.447,0
				c-0.364-0.436-0.207-0.93-0.159-1.412c0.646-1.108-0.023-2.439,0.603-3.552l-0.03,0.025
				C32.58,27.424,33.365,27.344,34.056,28.136z"/>
			<path fill-rule="evenodd" clip-rule="evenodd" fill="#54972F" d="M36.708,4.2c-0.99,0.587-1.665,0.22-2.157-0.708
				c-0.722-1.36-1.572-2.663-1.868-4.211c1.342,0,3.207-0.524,3.878,0.147s0.147,2.537,0.147,3.878
				C36.708,3.604,36.708,3.902,36.708,4.2z"/>
			<path fill-rule="evenodd" clip-rule="evenodd" fill="#B23C31" d="M-4.885,19.406c2.665,1.645,2.826,3.941,0,4.92
				C-4.885,22.686-4.885,21.047-4.885,19.406z"/>
			<path fill-rule="evenodd" clip-rule="evenodd" fill="#AD3A30" d="M-4.885,27.904c1.898-0.033,1.4,1.152,1.13,2.222
				c-1.044,0.183,0.247,1.83-1.13,1.803C-4.885,30.587-4.885,29.245-4.885,27.904z"/>
			<path fill-rule="evenodd" clip-rule="evenodd" fill="#A5382D" d="M19.713-0.719c-0.289,0.296-0.579,0.593-0.868,0.89
				c-0.665,0.521-1.383,0.503-2.128,0.21c-0.695-0.594-0.007-0.794,0.312-1.1C17.924-0.719,18.818-0.719,19.713-0.719z"/>
			<path fill-rule="evenodd" clip-rule="evenodd" fill="#86422A" d="M30.222,0.605c-0.372-0.441-0.745-0.883-1.117-1.325
				c0.745,0,1.491,0,2.236,0C30.968-0.278,30.595,0.164,30.222,0.605z"/>
			<path fill-rule="evenodd" clip-rule="evenodd" fill="#3D2114" d="M-4.885,31.929c0.534-0.503,0.366-1.444,1.13-1.803
				c-0.193,0.908-0.164,1.872-0.683,2.697C-5.32,32.892-4.701,32.209-4.885,31.929z"/>
			<path fill-rule="evenodd" clip-rule="evenodd" fill="#32120F" d="M31.387,31.58c-0.016,0.414-0.03,0.829-0.046,1.243
				c-0.149,0-0.298,0-0.447,0c-0.021-0.95,0.028-1.89,0.399-2.783C31.729,30.528,31.601,31.052,31.387,31.58z"/>
			<path fill-rule="evenodd" clip-rule="evenodd" fill="#3F3217" d="M36.708,27.904c-0.15,0.044-0.301,0.089-0.45,0.134
				c-0.04-0.482-0.08-0.966-0.12-1.45c0.189-0.157,0.38-0.315,0.57-0.473C36.708,26.711,36.708,27.308,36.708,27.904z"/>
			<path fill-rule="evenodd" clip-rule="evenodd" fill="#3E1411" d="M17.029-0.719c-0.137,0.271-0.274,0.542-0.411,0.813
				c0.271,0.22,0.261,0.425-0.032,0.616c-0.979-0.214-0.242-0.971-0.451-1.429C16.433-0.719,16.731-0.719,17.029-0.719z"/>
			<path fill-rule="evenodd" clip-rule="evenodd" fill="#7A602F" d="M24.592,18.48c-0.228,0.3-0.455,0.6-0.683,0.9
				c-0.464,1.417-1.504,1.396-2.667,1.069c-0.369-0.217-0.647-0.607-1.136-0.599c-0.883-0.035-1.767-0.07-2.649-0.105
				c-0.656-0.745-1.691-0.735-2.468-1.241c-0.37-0.033-0.739-0.066-1.109-0.1c-0.702-1.356-1.239-2.741-0.776-4.306
				c0.87-1.009,1.431-2.273,2.546-3.079c0.145-0.48,0.383-0.827,0.968-0.679c0.531,0.026,1.062,0.053,1.594,0.079
				c0.413-0.438,1.082-0.444,1.493-0.886l-0.025,0.038c0.781-0.576,1.688-0.439,2.569-0.451c0.591,0.147,1.207-0.163,1.801,0.078
				c0.529,0.309,0.687,0.965,1.2,1.301c1.284,2.062,2.569,4.125,3.854,6.187c-0.227,0.965-1.202,0.726-1.788,1.113
				C26.355,17.814,25.39,17.811,24.592,18.48z"/>
			<path fill-rule="evenodd" clip-rule="evenodd" fill="#BA3F34" d="M21.197,19.888c0.887-0.257,1.721-0.792,2.711-0.508
				c0.642,0.827,1.378,1.592,1.689,2.63c-0.117,0.686-1.069,0.876-0.994,1.677c0.62,0.941,1.488,1.474,2.614,1.576
				c1.479,2.519-0.293,3.485-2.114,4.43c-1.16,0.643-2.478,0.008-3.663,0.448c-0.117,0.002-0.235,0.004-0.353,0.007
				c-1.237-0.678-0.76-1.716-0.568-2.694c0.229-1.1-0.925-1.972-0.512-3.102c0.779-0.648,0.131-1.58,0.462-2.317
				C21.257,21.503,20.308,20.384,21.197,19.888z"/>
			<path fill-rule="evenodd" clip-rule="evenodd" fill="#3A3217" d="M6.725,18.03c0.222-1.15,0.747-2.256,0.51-3.474
				C8.721,15.958,7.736,16.996,6.725,18.03z"/>
			<path fill-rule="evenodd" clip-rule="evenodd" fill="#212810" d="M13.104,14.1c0.258,1.435,0.517,2.87,0.775,4.306
				c-1.514-1.09-0.972-2.851-1.401-4.294C12.687,14.107,12.896,14.103,13.104,14.1z"/>
			<path fill-rule="evenodd" clip-rule="evenodd" fill="#35160F" d="M20.52,27.453c0.048,0.928-0.011,1.879,0.568,2.694
				c-0.725-0.137-1.419-0.345-1.994-0.838C20.081,29.084,19.783,27.871,20.52,27.453z"/>
			<path fill-rule="evenodd" clip-rule="evenodd" fill="#3B1B12" d="M21.197,19.888c-0.253,0.718,0.044,1.572-0.548,2.206
				c-0.084,0.103-0.169,0.205-0.253,0.308c0.002-0.133,0.003-0.266,0.004-0.397c0.177-0.755,0.006-1.462-0.294-2.152
				C20.477,19.664,20.841,19.664,21.197,19.888z"/>
			<path fill-rule="evenodd" clip-rule="evenodd" fill="#293915" d="M14.989,18.505c0.947,0.167,1.976,0.17,2.468,1.241
				C16.552,19.497,15.621,19.299,14.989,18.505z"/>
			<path fill-rule="evenodd" clip-rule="evenodd" fill="#161D0B" d="M20.4,22.004c0.075,0.051,0.158,0.081,0.249,0.09
				c-0.068,0.794,0.351,1.727-0.642,2.258C20.139,23.568,20.27,22.786,20.4,22.004z"/>
			<path fill-rule="evenodd" clip-rule="evenodd" fill="#521C18" d="M15.657,6.799c1.007,0.238,2.832-0.364,1.907,1.857
				c-0.16,0.206-0.323,0.199-0.49,0.008C17.001,7.74,15.963,7.548,15.657,6.799z"/>
			<path fill-rule="evenodd" clip-rule="evenodd" fill="#5E211C" d="M17.074,8.665c0.164-0.003,0.327-0.006,0.49-0.008
				c0.621,0.518,1.285,0.933,2.142,0.878c-0.321,0.594-0.825,0.878-1.493,0.887C17.834,9.836,17.454,9.25,17.074,8.665z"/>
			<path fill-rule="evenodd" clip-rule="evenodd" fill="#2C2D12" d="M-2.177,13.114c0.283-0.546,1.234-0.226,1.323-1.022
				c0.5,0.483,1,0.965,1.499,1.449c-0.207,0.265-0.45,0.303-0.729,0.115C-0.781,13.475-1.479,13.294-2.177,13.114z"/>
			<path fill-rule="evenodd" clip-rule="evenodd" fill="#322313" d="M2.964,4.198C3.623,3.63,3.6,2.871,3.552,2.104
				c-0.19-0.282-0.15-0.525,0.12-0.732C3.869,2.423,5.327,3.789,2.964,4.198z"/>
			<path fill-rule="evenodd" clip-rule="evenodd" fill="#242A10" d="M-2.187,10.238C-2.931,8.76-3.18,7.44-1.108,6.86
				C-2.23,7.742-2.216,8.988-2.187,10.238z"/>
			<path fill-rule="evenodd" clip-rule="evenodd" fill="#391812" d="M16.619,10.342c-0.323,0.227-0.646,0.453-0.968,0.679
				c-0.203-0.458-0.023-0.787,0.378-1.001C16.354,9.846,16.519,10.056,16.619,10.342z"/>
			<path fill-rule="evenodd" clip-rule="evenodd" fill="#2B3313" d="M3.672,1.373c-0.04,0.244-0.08,0.487-0.12,0.731
				C3.11,1.25,2.84,0.414,3.803-0.292C3.759,0.263,3.715,0.818,3.672,1.373z"/>
			<path fill-rule="evenodd" clip-rule="evenodd" fill="#323A17" d="M-0.083,13.656c0.242-0.039,0.485-0.077,0.729-0.116
				c0.573,0.008,1.068,0.126,1.167,0.814C1.181,14.121,0.549,13.889-0.083,13.656z"/>
			<path fill-rule="evenodd" clip-rule="evenodd" fill="#3F2B17" d="M24.168,9.604c-0.614-0.038-1.229-0.076-1.844-0.114
				c-0.678-0.411-1.536,0.178-2.186-0.392c1.334-0.144,2.668-0.288,4.002-0.431C24.487,8.97,24.469,9.283,24.168,9.604z"/>
			<path fill-rule="evenodd" clip-rule="evenodd" fill="#312313" d="M26.428,3.787c0.191,0.596,0.383,1.192,0.575,1.789
				c-0.427,0.404-0.854,0.808-1.281,1.212C26.145,5.832,25.713,4.675,26.428,3.787z"/>
			<path fill-rule="evenodd" clip-rule="evenodd" fill="#4B1E17" d="M21.039,0.524c0.541,0.381,1.149,0.537,1.803,0.541
				c0.299,0.135,0.301,0.274,0.006,0.417C21.898,1.817,20.706,2.61,21.039,0.524z"/>
			<path fill-rule="evenodd" clip-rule="evenodd" fill="#441613" d="M16.586,0.709c0.011-0.205,0.021-0.41,0.032-0.616
				c0.742,0.025,1.484,0.051,2.227,0.077C18.269,1.092,17.438,0.948,16.586,0.709z"/>
			<path fill-rule="evenodd" clip-rule="evenodd" fill="#421812" d="M22.848,1.481c-0.004-0.139-0.006-0.278-0.006-0.417
				c0.717-0.446,1.464-0.724,2.317-0.424C24.478,1.166,23.646,1.277,22.848,1.481z"/>
			<path fill-rule="evenodd" clip-rule="evenodd" fill="#342214" d="M24.168,9.604c-0.009-0.312-0.018-0.625-0.027-0.937
				c0.314-0.223,0.629-0.446,0.942-0.669c-0.452,0.867-0.178,1.687,0.167,2.501C24.89,10.201,24.529,9.902,24.168,9.604z"/>
			<path fill-rule="evenodd" clip-rule="evenodd" fill="#322712" d="M20.139,9.099c0.729,0.13,1.457,0.261,2.186,0.392
				c-0.881,0.027-1.763,0.055-2.644,0.082C19.833,9.415,19.986,9.257,20.139,9.099z"/>
			<path fill-rule="evenodd" clip-rule="evenodd" fill="#302B13" d="M27.247,17.555c0.619-0.289,1.238-0.578,1.857-0.868
				c0.332,0.3,0.479,0.678,0.479,1.119c-0.621,0.028-1.243,0.055-1.865,0.082C27.483,17.887,27.326,17.776,27.247,17.555z"/>
			<path fill-rule="evenodd" clip-rule="evenodd" fill="#381D12" d="M31.783,10.045c0.784-0.08,1.51,0.144,2.224,0.428
				C33.117,11.099,32.412,10.769,31.783,10.045z"/>
			<path fill-rule="evenodd" clip-rule="evenodd" fill="#21190D" d="M29.104,8.586c-0.025,0.919,0.517,1.316,1.34,1.453
				c-0.563,0.559-1.125,0.323-1.545-0.128C28.487,9.468,28.58,8.958,29.104,8.586z"/>
			<path fill-rule="evenodd" clip-rule="evenodd" fill="#382214" d="M27.314,5.595c0.597,0.286,1.192,0.572,1.789,0.858
				c0.11,0.056,0.22,0.111,0.33,0.167c-0.104,0.066-0.207,0.133-0.311,0.201C28.378,6.621,27.556,6.537,27.314,5.595z"/>
			<path fill-rule="evenodd" clip-rule="evenodd" fill="#161009" d="M29.123,6.821c-0.004-0.123-0.011-0.246-0.02-0.368
				c0.622,0.056,1.23,0.052,1.72-0.428c-0.134,0.323-0.269,0.646-0.403,0.968C29.987,6.937,29.555,6.879,29.123,6.821z"/>
			<path fill-rule="evenodd" clip-rule="evenodd" fill="#222E12" d="M27.247,17.555c0.157,0.111,0.313,0.222,0.471,0.333
				c-1.041,0.197-2.083,0.395-3.125,0.593C25.287,17.626,26.25,17.543,27.247,17.555z"/>
			<path fill-rule="evenodd" clip-rule="evenodd" fill="#311C12" d="M24.604,23.687c-0.51-1.058,0.656-1.122,0.994-1.677
				C25.722,22.839,24.835,23.068,24.604,23.687z"/>
			<path fill-rule="evenodd" clip-rule="evenodd" fill="#1F260F" d="M29.227,23.436c-0.613,0.15-1.227,0.301-1.839,0.452
				C27.794,22.896,28.412,22.769,29.227,23.436z"/>
			<path fill-rule="evenodd" clip-rule="evenodd" fill="#401511" d="M21.44,30.141c1.136-0.847,2.435-0.362,3.663-0.448
				c-0.459,0.53-0.919,1.062-1.378,1.593C23.654,29.524,22.141,30.645,21.44,30.141z"/>
			<path fill-rule="evenodd" clip-rule="evenodd" fill="#211F0F" d="M31.387,31.58c-0.031-0.514-0.062-1.026-0.094-1.54
				c0.232-0.712-1.021-1.758,0.491-2.181C31.635,29.098,32.05,30.396,31.387,31.58z"/>
			<path fill-rule="evenodd" clip-rule="evenodd" fill="#492417" d="M34.056,28.136c-0.768-0.084-1.534-0.167-2.302-0.251
				C32.632,26.958,33.399,27.03,34.056,28.136z"/>
		</g>
	</g>
</g>
</svg>
