<?xml version="1.0" encoding="UTF-8" standalone="no"?>
<!-- Created with Inkscape (http://www.inkscape.org/) -->

<svg
   xmlns:dc="http://purl.org/dc/elements/1.1/"
   xmlns:cc="http://creativecommons.org/ns#"
   xmlns:rdf="http://www.w3.org/1999/02/22-rdf-syntax-ns#"
   xmlns:svg="http://www.w3.org/2000/svg"
   xmlns="http://www.w3.org/2000/svg"
   xmlns:sodipodi="http://sodipodi.sourceforge.net/DTD/sodipodi-0.dtd"
   xmlns:inkscape="http://www.inkscape.org/namespaces/inkscape"
   width="32px"
   height="32px"
   id="svg2985"
   version="1.1"
   inkscape:version="0.48.4 r9939"
   sodipodi:docname="Nouveau document 2">
  <defs
     id="defs2987" />
  <sodipodi:namedview
     id="base"
     pagecolor="#ffffff"
     bordercolor="#666666"
     borderopacity="1.0"
     inkscape:pageopacity="0.0"
     inkscape:pageshadow="2"
     inkscape:zoom="22.395604"
     inkscape:cx="7.8040612"
     inkscape:cy="14.214423"
     inkscape:current-layer="layer1"
     showgrid="true"
     inkscape:grid-bbox="true"
     inkscape:document-units="px"
     inkscape:window-width="1920"
     inkscape:window-height="1021"
     inkscape:window-x="-2"
     inkscape:window-y="36"
     inkscape:window-maximized="1" />
  <metadata
     id="metadata2990">
    <rdf:RDF>
      <cc:Work
         rdf:about="">
        <dc:format>image/svg+xml</dc:format>
        <dc:type
           rdf:resource="http://purl.org/dc/dcmitype/StillImage" />
        <dc:title></dc:title>
      </cc:Work>
    </rdf:RDF>
  </metadata>
  <g
     id="layer1"
     inkscape:label="Layer 1"
     inkscape:groupmode="layer">
    <path
       style="fill:none;stroke:#000000;stroke-width:0.2;stroke-linecap:butt;stroke-linejoin:miter;stroke-opacity:1;stroke-miterlimit:4;stroke-dasharray:none"
       d="m 0.35721296,0.43130463 30.98822404,0 0,30.98822437 -30.80961756,0 z"
       id="path2996"
       inkscape:connector-curvature="0" />
    <path
       style="fill:none;stroke:#000000;stroke-width:0.09971246;stroke-linecap:butt;stroke-linejoin:miter;stroke-miterlimit:4;stroke-opacity:1;stroke-dasharray:none"
       d="M 0.4017029,12.835331 19.306868,0.47575853 31.25636,31.285772 l 0,0 0.04459,-0.04446"
       id="path3766"
       inkscape:connector-curvature="0" />
    <path
       style="fill:#ff0000;fill-opacity:1;fill-rule:evenodd;stroke:none"
       d="M 0.53600354,9.254885 C 0.52091735,7.406866 0.50199836,4.6942801 0.49396134,3.2269163 l -0.0146128,-2.66793433 9.26613473,0 c 5.3060407,0 9.2480057,0.0167179 9.2237157,0.0391178 C 18.915226,0.6478726 0.60213088,12.614919 0.57993711,12.614919 c -0.009077,0 -0.0288474,-1.512015 -0.0439336,-3.360034 z"
       id="path3768"
       inkscape:connector-curvature="0" />
    <path
       style="fill:#ffd42a;fill-opacity:1;fill-rule:evenodd;stroke:none"
       d="M 25.34601,15.839977 C 22.12303,7.5213841 19.473597,0.68009949 19.458382,0.6371223 c -0.02626,-0.0741646 0.272461,-0.0781403 5.871128,-0.0781403 l 5.898791,0 0,15.20387703 c 0,8.362132 -0.005,15.203416 -0.01116,15.202854 -0.0061,-5.62e-4 -2.648147,-6.807143 -5.871128,-15.125736 l 0,0 z"
       id="path3770"
       inkscape:connector-curvature="0" />
    <path
       style="fill:none;stroke:#000000;stroke-width:0.1;stroke-linecap:butt;stroke-linejoin:miter;stroke-opacity:1;stroke-miterlimit:4;stroke-dasharray:none"
       d="M 7.4121689,8.1560349 13.172228,31.330226"
       id="path3774"
       inkscape:connector-curvature="0" />
    <path
       style="fill:#aa0000;fill-opacity:1;fill-rule:evenodd;stroke:none"
       d="M 0.62642819,25.575052 C 0.61028139,22.437718 0.585612,18.283443 0.57160732,16.34333 L 0.54614426,12.815852 3.9540772,10.596093 C 6.8095066,8.7362078 7.3674813,8.3887337 7.3957574,8.4528153 7.4399053,8.5528668 13.055092,31.142392 13.055092,31.219945 c 0,0.04908 -1.072654,0.05935 -6.1996531,0.05935 l -6.19965288,0 -0.0293578,-5.704245 z"
       id="path3776"
       inkscape:connector-curvature="0" />
    <path
       style="fill:#ff9955;fill-opacity:1;fill-rule:evenodd;stroke:none"
       d="M 13.216768,31.201156 C 13.145581,30.958759 7.5194633,8.2683891 7.5290526,8.2623616 c 0.00636,-0.004 2.6497964,-1.7312004 5.8743024,-3.8382275 3.224506,-2.1070272 5.868029,-3.82358221 5.874498,-3.81456665 0.0065,0.009016 2.496543,6.42613205 5.533501,14.26025855 3.036958,7.834127 5.710812,14.731128 5.941899,15.326669 l 0.420158,1.082802 -8.966847,0 c -8.501345,0 -8.968039,-0.0041 -8.989796,-0.07814 l 0,0 z"
       id="path3778"
       inkscape:connector-curvature="0" />
  </g>
</svg>
